<?xml version="1.0" encoding="UTF-8" standalone="no"?>
<!DOCTYPE svg PUBLIC "-//W3C//DTD SVG 1.1//EN"
 "http://www.w3.org/Graphics/SVG/1.1/DTD/svg11.dtd">
<!-- Generated by graphviz version 2.40.1 (20161225.0304)
 -->
<!-- Title: dependencies Pages: 1 -->
<svg width="893pt" height="284pt"
 viewBox="0.00 0.00 893.00 284.00" xmlns="http://www.w3.org/2000/svg" xmlns:xlink="http://www.w3.org/1999/xlink">
<g id="graph0" class="graph" transform="scale(1 1) rotate(0) translate(4 280)">
<title>dependencies</title>
<polygon fill="#ffffff" stroke="transparent" points="-4,4 -4,-280 889,-280 889,4 -4,4"/>
<text text-anchor="start" x="421.5091" y="-42.4" font-family="sans-serif" font-weight="bold" font-size="14.00" fill="#000000">Legend</text>
<polygon fill="#ffffb3" stroke="transparent" points="208.5,-10 208.5,-30 228.5,-30 228.5,-10 208.5,-10"/>
<text text-anchor="start" x="232.129" y="-15.4" font-family="sans-serif" font-size="14.00" fill="#000000"> &#160;Declarations</text>
<polygon fill="#8dd3c7" stroke="transparent" points="321.5,-10 321.5,-30 341.5,-30 341.5,-10 321.5,-10"/>
<text text-anchor="start" x="345.2251" y="-15.4" font-family="sans-serif" font-size="14.00" fill="#000000"> &#160;Module</text>
<polygon fill="#80b1d3" stroke="transparent" points="407.5,-10 407.5,-30 427.5,-30 427.5,-10 407.5,-10"/>
<text text-anchor="start" x="431.2812" y="-15.4" font-family="sans-serif" font-size="14.00" fill="#000000"> &#160;Bootstrap</text>
<polygon fill="#fdb462" stroke="transparent" points="504.5,-10 504.5,-30 524.5,-30 524.5,-10 504.5,-10"/>
<text text-anchor="start" x="528.1732" y="-15.4" font-family="sans-serif" font-size="14.00" fill="#000000"> &#160;Providers</text>
<polygon fill="#fb8072" stroke="transparent" points="600.5,-10 600.5,-30 620.5,-30 620.5,-10 600.5,-10"/>
<text text-anchor="start" x="624.2258" y="-15.4" font-family="sans-serif" font-size="14.00" fill="#000000"> &#160;Exports</text>
<g id="clust1" class="cluster">
<title>cluster_AppModule</title>
<polygon fill="none" stroke="#000000" stroke-dasharray="1,5" points="8,-70 8,-268 877,-268 877,-70 8,-70"/>
</g>
<g id="clust2" class="cluster">
<title>cluster_AppModule_declarations</title>
<polygon fill="none" stroke="#000000" points="332,-78 332,-130 869,-130 869,-78 332,-78"/>
</g>
<g id="clust9" class="cluster">
<title>cluster_AppModule_bootstrap</title>
<polygon fill="none" stroke="#000000" points="414,-208 414,-260 538,-260 538,-208 414,-208"/>
</g>
<g id="clust10" class="cluster">
<title>cluster_AppModule_providers</title>
<polygon fill="none" stroke="#000000" points="16,-78 16,-130 324,-130 324,-78 16,-78"/>
</g>
<!-- AppComponent -->
<g id="node1" class="node">
<title>AppComponent</title>
<polygon fill="#ffffb3" stroke="#000000" points="860.9399,-122 755.0601,-122 755.0601,-86 860.9399,-86 860.9399,-122"/>
<text text-anchor="middle" x="808" y="-99.8" font-family="Times,serif" font-size="14.00" fill="#000000">AppComponent</text>
</g>
<!-- AppModule -->
<g id="node5" class="node">
<title>AppModule</title>
<polygon fill="#8dd3c7" stroke="#000000" points="517.6571,-187 514.6571,-191 493.6571,-191 490.6571,-187 434.3429,-187 434.3429,-151 517.6571,-151 517.6571,-187"/>
<text text-anchor="middle" x="476" y="-164.8" font-family="Times,serif" font-size="14.00" fill="#000000">AppModule</text>
</g>
<!-- AppComponent&#45;&gt;AppModule -->
<g id="edge1" class="edge">
<title>AppComponent&#45;&gt;AppModule</title>
<path fill="none" stroke="#000000" d="M808,-122.2843C808,-143.3211 808,-175 808,-175 808,-175 527.7119,-175 527.7119,-175"/>
<polygon fill="#000000" stroke="#000000" points="527.7119,-171.5001 517.7119,-175 527.7118,-178.5001 527.7119,-171.5001"/>
</g>
<!-- CasesComponent -->
<g id="node2" class="node">
<title>CasesComponent</title>
<polygon fill="#ffffb3" stroke="#000000" points="736.9874,-122 623.0126,-122 623.0126,-86 736.9874,-86 736.9874,-122"/>
<text text-anchor="middle" x="680" y="-99.8" font-family="Times,serif" font-size="14.00" fill="#000000">CasesComponent</text>
</g>
<!-- CasesComponent&#45;&gt;AppModule -->
<g id="edge2" class="edge">
<title>CasesComponent&#45;&gt;AppModule</title>
<path fill="none" stroke="#000000" d="M680,-122.0225C680,-139.3734 680,-163 680,-163 680,-163 527.7747,-163 527.7747,-163"/>
<polygon fill="#000000" stroke="#000000" points="527.7747,-159.5001 517.7747,-163 527.7747,-166.5001 527.7747,-159.5001"/>
</g>
<!-- HomeComponent -->
<g id="node3" class="node">
<title>HomeComponent</title>
<polygon fill="#ffffb3" stroke="#000000" points="604.5451,-122 489.4549,-122 489.4549,-86 604.5451,-86 604.5451,-122"/>
<text text-anchor="middle" x="547" y="-99.8" font-family="Times,serif" font-size="14.00" fill="#000000">HomeComponent</text>
</g>
<!-- HomeComponent&#45;&gt;AppModule -->
<g id="edge3" class="edge">
<title>HomeComponent&#45;&gt;AppModule</title>
<path fill="none" stroke="#000000" d="M503.5281,-122.1061C503.5281,-122.1061 503.5281,-140.991 503.5281,-140.991"/>
<polygon fill="#000000" stroke="#000000" points="500.0281,-140.9909 503.5281,-150.991 507.0281,-140.991 500.0281,-140.9909"/>
</g>
<!-- ProdutosComponent -->
<g id="node4" class="node">
<title>ProdutosComponent</title>
<polygon fill="#ffffb3" stroke="#000000" points="471.6108,-122 340.3892,-122 340.3892,-86 471.6108,-86 471.6108,-122"/>
<text text-anchor="middle" x="406" y="-99.8" font-family="Times,serif" font-size="14.00" fill="#000000">ProdutosComponent</text>
</g>
<!-- ProdutosComponent&#45;&gt;AppModule -->
<g id="edge4" class="edge">
<title>ProdutosComponent&#45;&gt;AppModule</title>
<path fill="none" stroke="#000000" d="M452.8636,-122.1061C452.8636,-122.1061 452.8636,-140.991 452.8636,-140.991"/>
<polygon fill="#000000" stroke="#000000" points="449.3637,-140.9909 452.8636,-150.991 456.3637,-140.991 449.3637,-140.9909"/>
</g>
<!-- AppComponent  -->
<g id="node6" class="node">
<title>AppComponent </title>
<polygon fill="#80b1d3" stroke="#000000" points="530.439,-252 421.561,-252 421.561,-216 530.439,-216 530.439,-252"/>
<text text-anchor="middle" x="476" y="-229.8" font-family="Times,serif" font-size="14.00" fill="#000000">AppComponent </text>
</g>
<!-- AppModule&#45;&gt;AppComponent  -->
<g id="edge5" class="edge">
<title>AppModule&#45;&gt;AppComponent </title>
<path fill="none" stroke="#000000" stroke-dasharray="1,5" d="M476,-187.1061C476,-187.1061 476,-205.991 476,-205.991"/>
<polygon fill="#000000" stroke="#000000" points="472.5001,-205.9909 476,-215.991 479.5001,-205.991 472.5001,-205.9909"/>
</g>
<!-- CasesService -->
<g id="node7" class="node">
<title>CasesService</title>
<ellipse fill="#fdb462" stroke="#000000" cx="253" cy="-104" rx="62.5334" ry="18"/>
<text text-anchor="middle" x="253" y="-99.8" font-family="Times,serif" font-size="14.00" fill="#000000">CasesService</text>
</g>
<!-- CasesService&#45;&gt;AppModule -->
<g id="edge6" class="edge">
<title>CasesService&#45;&gt;AppModule</title>
<path fill="none" stroke="#000000" d="M253,-122.0225C253,-139.3734 253,-163 253,-163 253,-163 424.317,-163 424.317,-163"/>
<polygon fill="#000000" stroke="#000000" points="424.317,-166.5001 434.317,-163 424.317,-159.5001 424.317,-166.5001"/>
</g>
<!-- ProdutosService -->
<g id="node8" class="node">
<title>ProdutosService</title>
<ellipse fill="#fdb462" stroke="#000000" cx="98" cy="-104" rx="74.1566" ry="18"/>
<text text-anchor="middle" x="98" y="-99.8" font-family="Times,serif" font-size="14.00" fill="#000000">ProdutosService</text>
</g>
<!-- ProdutosService&#45;&gt;AppModule -->
<g id="edge7" class="edge">
<title>ProdutosService&#45;&gt;AppModule</title>
<path fill="none" stroke="#000000" d="M98,-122.2843C98,-143.3211 98,-175 98,-175 98,-175 424.1031,-175 424.1031,-175"/>
<polygon fill="#000000" stroke="#000000" points="424.1032,-178.5001 434.1031,-175 424.1031,-171.5001 424.1032,-178.5001"/>
</g>
</g>
</svg>
